# xmcd
#
# Track frame offsets: 
#        150
#        15076
#        25488
#        38037
#        54847
#        66319
#        75988
#        88421
#        108529
#        119832
#        136813
#        149027
#        164695
#        181735
#        194161
#        209093
#        221521
#
# Disc length: 3122 seconds
#
# Revision: 6
# Processed by: cddbd v1.5.2PL0 Copyright (c) Steve Scherf et al.
# Submitted via: ExactAudioCopy v0.99pb4
#
DISCID=020c3011
DTITLE=Albert King - King Of The Blues Guitar
DYEAR=1969
DGENRE=Blues
TTITLE0=Laundromat Blues
TTITLE1=Overall Junction
TTITLE2=Oh, Pretty Woman
TTITLE3=Funk Shun
TTITLE4=Crosscut Saw
TTITLE5=Down Don't Bother Me
TTITLE6=Born Under A Bad Sign
TTITLE7=Personal Manager
TTITLE8=Kansas City
TTITLE9=The Very Thought Of You
TTITLE10=The Hunter
TTITLE11=I Almost Lost My Mind
TTITLE12=As The Years Go Passing By
TTITLE13=Cold Feet
TTITLE14=You Sure Drive A Hard Bargain
TTITLE15=I Love Lucy
TTITLE16=You're Gonna Need Me
EXTD=Albert King, vocals and lead guitar\nBooker T. Jones, keybords\nSte
EXTD=ve Cropper, guitar\nDuck Dunn,
EXTT0=
EXTT1=
EXTT2=
EXTT3=
EXTT4=
EXTT5=
EXTT6=
EXTT7=
EXTT8=
EXTT9=
EXTT10=
EXTT11=
EXTT12=
EXTT13=
EXTT14=
EXTT15=
EXTT16=
PLAYORDER=
